<svg width="64" height="64" viewBox="0 0 64 64" fill="none" xmlns="http://www.w3.org/2000/svg">
<path d="M27.002 59.994C26.937 59.994 26.871 59.988 26.805 59.974C26.264 59.867 25.912 59.339 26.021 58.798L27.021 53.798C27.129 53.255 27.656 52.902 28.198 53.013C28.739 53.122 29.091 53.648 28.982 54.191L27.982 59.191C27.887 59.666 27.469 59.994 27.002 59.994V59.994Z" fill="#545C66"/>
<path d="M36.998 59.994C36.531 59.994 36.113 59.666 36.019 59.191L35.019 54.191C34.911 53.648 35.262 53.123 35.803 53.013C36.352 52.902 36.872 53.257 36.98 53.798L37.98 58.798C38.088 59.339 37.737 59.866 37.196 59.974C37.129 59.988 37.063 59.994 36.998 59.994V59.994Z" fill="#545C66"/>
<path d="M36 53.994L37 58.994H27.01L28.01 53.994H36Z" fill="#545C66"/>
<path d="M46 43.006V49.994H18.061H18.01V43.006V35.006C18.01 33.906 18.91 33.006 20.01 33.006H44C45.101 33.006 46 33.906 46 35.006V43.006Z" fill="#5D9CEC"/>
<path d="M46 49.994V51.994C46 53.094 45.101 53.994 44 53.994H36H28.01H20.01C18.91 53.994 18.01 53.094 18.01 51.994V49.994H18.061H46Z" fill="#656D78"/>
<path d="M49.25 15.016C56.87 15.146 63 21.355 63 29.006C63 36.736 56.74 43.006 49 43.006H46.01H46V35.006C46 33.906 45.101 33.006 44 33.006H20.01C18.91 33.006 18.01 33.906 18.01 35.006V43.006H18H12C5.931 43.006 1 38.076 1 32.006C1 25.926 5.931 21.006 12 21.006H13.11C14.11 11.455 22.19 4.00598 32 4.00598C39.641 4.00598 46.23 8.51598 49.25 15.016Z" fill="#E6E9ED"/>
<path d="M36.0012 29.002C35.4482 29.002 35.0012 28.555 35.0012 28.002V18C35.0012 17.447 35.4482 17 36.0012 17C36.5542 17 37.0012 17.447 37.0012 18V28.002C37.0012 28.555 36.5542 29.002 36.0012 29.002V29.002Z" fill="#5D9CEC"/>
<path d="M38.0015 20.9999C37.7455 20.9999 37.4895 20.9019 37.2945 20.7069L35.2945 18.7069C34.9035 18.3159 34.9035 17.6839 35.2945 17.2929C35.6855 16.9019 36.3175 16.9019 36.7085 17.2929L38.7085 19.2929C39.0995 19.6839 39.0995 20.3159 38.7085 20.7069C38.5135 20.9019 38.2575 20.9999 38.0015 20.9999Z" fill="#5D9CEC"/>
<path d="M34.0015 20.9999C33.7455 20.9999 33.4895 20.9019 33.2945 20.7069C32.9035 20.3159 32.9035 19.6839 33.2945 19.2929L35.2945 17.2929C35.6855 16.9019 36.3175 16.9019 36.7085 17.2929C37.0995 17.6839 37.0995 18.3159 36.7085 18.7069L34.7085 20.7069C34.5135 20.9019 34.2575 20.9999 34.0015 20.9999Z" fill="#5D9CEC"/>
<path d="M27.998 29.002C27.445 29.002 26.998 28.555 26.998 28.002V18C26.998 17.447 27.445 17 27.998 17C28.551 17 28.998 17.447 28.998 18V28.002C28.998 28.555 28.551 29.002 27.998 29.002V29.002Z" fill="#5D9CEC"/>
<path d="M27.9983 29.002C27.7423 29.002 27.4863 28.904 27.2913 28.709L25.2913 26.709C24.9003 26.318 24.9003 25.686 25.2913 25.295C25.6823 24.904 26.3143 24.904 26.7053 25.295L28.7053 27.295C29.0963 27.686 29.0963 28.318 28.7053 28.709C28.5103 28.904 28.2543 29.002 27.9983 29.002Z" fill="#5D9CEC"/>
<path d="M27.9983 29.002C27.7423 29.002 27.4863 28.904 27.2913 28.709C26.9003 28.318 26.9003 27.686 27.2913 27.295L29.2913 25.295C29.6823 24.904 30.3143 24.904 30.7053 25.295C31.0963 25.686 31.0963 26.318 30.7053 26.709L28.7053 28.709C28.5103 28.904 28.2543 29.002 27.9983 29.002Z" fill="#5D9CEC"/>
<path d="M43.9918 54.994H20.0078C18.3538 54.994 17.0078 53.648 17.0078 51.994V35.008C17.0078 33.354 18.3538 32.008 20.0078 32.008H43.9918C45.6458 32.008 46.9918 33.354 46.9918 35.008V51.994C46.9918 53.648 45.6458 54.994 43.9918 54.994ZM20.0078 34.008C19.4558 34.008 19.0078 34.455 19.0078 35.008V51.994C19.0078 52.547 19.4558 52.994 20.0078 52.994H43.9918C44.5438 52.994 44.9918 52.547 44.9918 51.994V35.008C44.9918 34.455 44.5438 34.008 43.9918 34.008H20.0078Z" fill="#656D78"/>
<path d="M39 59.994H25C24.447 59.994 24 59.547 24 58.994C24 58.441 24.447 57.994 25 57.994H39C39.553 57.994 40 58.441 40 58.994C40 59.547 39.553 59.994 39 59.994Z" fill="#656D78"/>
<path d="M32.0301 53.494C31.4771 53.494 31.0251 53.047 31.0251 52.494C31.0251 51.941 31.4671 51.494 32.0191 51.494H32.0301C32.5821 51.494 33.0301 51.941 33.0301 52.494C33.0301 53.047 32.5821 53.494 32.0301 53.494V53.494Z" fill="#545C66"/>
</svg>
