<svg width="64" height="64" viewBox="0 0 64 64" fill="none" xmlns="http://www.w3.org/2000/svg">
<g clip-path="url(#clip0)">
<path d="M31.8752 35.6226C31.6432 35.6226 31.4112 35.5427 31.2234 35.383L27.2905 32.0391L28.5943 30.5057L31.8752 33.2956L35.1557 30.5064L36.4594 32.0397L32.5272 35.3831C32.3392 35.5427 32.1072 35.6226 31.8752 35.6226Z" fill="#8B7E7F"/>
<path d="M31.875 47.0944C31.6754 47.0944 31.4759 47.0352 31.304 46.9166L24.0173 41.8937C23.5597 41.5782 24.7019 39.9212 25.1595 40.2366L31.8753 44.8657L38.5903 40.2371C39.0479 39.9219 40.19 41.5789 39.7325 41.8942L32.4464 46.9166C32.2742 47.035 32.0745 47.0944 31.875 47.0944Z" fill="#8B7E7F"/>
<path d="M31.8751 58.5661C31.7008 58.5661 31.5265 58.5208 31.3705 58.4304L20.5781 52.1753C20.0972 51.8967 21.1065 50.1552 21.5872 50.4341L31.875 56.3967L42.163 50.434C42.6437 50.1553 43.653 51.8965 43.1721 52.1752L32.3796 58.4304C32.2237 58.5209 32.0493 58.5661 31.8751 58.5661Z" fill="#8B7E7F"/>
<path d="M31.8749 27.5053C24.2917 27.5053 18.1223 21.3359 18.1223 13.7526C18.1223 6.16938 24.2917 0 31.8749 0C39.4582 0 45.6276 6.16938 45.6276 13.7526C45.6276 21.3359 39.4582 27.5053 31.8749 27.5053ZM31.8749 2.01262C25.4014 2.01262 20.1349 7.27913 20.1349 13.7526C20.1349 20.2261 25.4014 25.4926 31.8749 25.4926C38.3484 25.4926 43.6149 20.2261 43.6149 13.7526C43.6149 7.27913 38.3484 2.01262 31.8749 2.01262Z" fill="#FEE191"/>
<path d="M31.875 22.1383C27.2511 22.1383 23.4893 18.3764 23.4893 13.7526C23.4893 9.1287 27.2511 5.36682 31.875 5.36682C36.4989 5.36682 40.2608 9.1287 40.2608 13.7526C40.2608 18.3764 36.4989 22.1383 31.875 22.1383ZM31.875 7.37945C28.3609 7.37945 25.5019 10.2386 25.5019 13.7526C25.5019 17.2666 28.361 20.1257 31.875 20.1257C35.389 20.1257 38.2481 17.2666 38.2481 13.7526C38.2481 10.2386 35.3891 7.37945 31.875 7.37945Z" fill="#FFD24D"/>
<path d="M45.379 56.1164L32.8812 19.6226V14.4235H30.8687V19.6229L18.37 56.1193C18.19 56.6451 18.4702 57.2173 18.9958 57.3974C19.1038 57.4343 19.2138 57.4519 19.322 57.4519C19.7402 57.4519 20.1308 57.1891 20.274 56.7714L30.8687 25.8345V62.9938C30.8687 63.5495 31.3192 64 31.875 64C32.4307 64 32.8812 63.5495 32.8812 62.9938V25.8346L43.475 56.7685C43.6552 57.2941 44.2271 57.5748 44.7531 57.3944C45.2788 57.2144 45.5592 56.6421 45.379 56.1164Z" fill="#605353"/>
<path d="M31.8749 15.7652C32.9865 15.7652 33.8876 14.8642 33.8876 13.7526C33.8876 12.6411 32.9865 11.74 31.8749 11.74C30.7634 11.74 29.8623 12.6411 29.8623 13.7526C29.8623 14.8642 30.7634 15.7652 31.8749 15.7652Z" fill="#F14742"/>
</g>
<defs>
<clipPath id="clip0">
<rect x="18" width="27.75" height="64" fill="white"/>
</clipPath>
</defs>
</svg>
