<svg width="64" height="64" viewBox="0 0 64 64" fill="none" xmlns="http://www.w3.org/2000/svg">
<g clip-path="url(#clip0)">
<path d="M19.9663 61.8121C19.3622 61.8129 18.8717 61.3239 18.8709 60.7197C18.8703 60.3129 19.0955 59.9394 19.4554 59.75L38.29 49.8377L23.8794 43.1121C23.3318 42.8565 23.0953 42.2056 23.3509 41.6581C23.4355 41.4767 23.5684 41.322 23.735 41.2108L35.6733 33.2523L27.9981 26.5344C27.5181 26.1673 27.4265 25.4809 27.7935 25.0009C28.1605 24.5209 28.847 24.4293 29.327 24.7964C29.3661 24.8262 29.403 24.8587 29.4377 24.8936L38.1894 32.5512C38.6447 32.9483 38.6919 33.6393 38.2948 34.0947C38.2317 34.1669 38.1595 34.2306 38.08 34.2841L26.5672 41.9527L41.2141 48.7877C41.7617 49.0432 41.9984 49.6941 41.7428 50.2417C41.6417 50.4581 41.4726 50.6356 41.2612 50.7469L20.4761 61.6865C20.3188 61.769 20.1439 61.8121 19.9663 61.8121Z" fill="#3B869E"/>
<path d="M54.2626 33.9163C54.0348 33.9166 53.8129 33.8451 53.6281 33.7117C53.1353 33.3622 53.0192 32.6793 53.3687 32.1865C53.3702 32.1843 53.3717 32.1823 53.3733 32.1801C59.8816 23.0705 59.8816 10.8319 53.3733 1.72226C53.0262 1.22766 53.1458 0.545445 53.6403 0.198389C54.1288 -0.144428 54.8018 -0.0324347 55.1531 0.449998C62.2054 10.3206 62.2054 23.5817 55.1531 33.4523C54.949 33.7422 54.6171 33.9151 54.2626 33.9163Z" fill="#F7BA61"/>
<path d="M47.5337 30.1181C46.9295 30.1173 46.4404 29.6269 46.4411 29.0228C46.4413 28.7799 46.5224 28.5442 46.6716 28.3525C51.9008 21.6576 51.9008 12.2625 46.6716 5.56763C46.3004 5.09094 46.3858 4.40353 46.8625 4.03227C47.3392 3.66101 48.0266 3.74648 48.3979 4.22317C54.2424 11.7087 54.2424 22.2114 48.3979 29.6969C48.1902 29.9632 47.8713 30.1185 47.5337 30.1181Z" fill="#F7BA61"/>
<path d="M9.73707 33.9159C9.38359 33.9159 9.05198 33.7452 8.8466 33.4575C1.7943 23.5869 1.7943 10.3258 8.8466 0.455201C9.20213 -0.0332484 9.8864 -0.140866 10.3748 0.214668C10.8573 0.565964 10.9693 1.23902 10.6265 1.72747C4.11813 10.8371 4.11813 23.0757 10.6265 32.1853C10.9795 32.6756 10.8682 33.3592 10.378 33.7123C10.3759 33.7138 10.3738 33.7153 10.3716 33.7168C10.1861 33.8481 9.9642 33.9178 9.73707 33.9159Z" fill="#F7BA61"/>
<path d="M16.4657 30.1181C16.128 30.1186 15.809 29.9632 15.6014 29.6969C9.75687 22.2114 9.75687 11.7087 15.6014 4.22317C15.9727 3.74648 16.6601 3.66101 17.1368 4.03227C17.6135 4.40353 17.699 5.09094 17.3277 5.56763C12.0985 12.2625 12.0985 21.6576 17.3277 28.3525C17.6987 28.8293 17.6128 29.5167 17.136 29.8875C16.9443 30.0366 16.7084 30.1177 16.4657 30.1181Z" fill="#F7BA61"/>
<path d="M16.4657 30.1181C16.128 30.1186 15.809 29.9632 15.6014 29.6969C9.75687 22.2114 9.75687 11.7087 15.6014 4.22317C15.9727 3.74648 16.6601 3.66101 17.1368 4.03227C17.6135 4.40353 17.699 5.09094 17.3277 5.56763C12.0985 12.2625 12.0985 21.6576 17.3277 28.3525C17.6987 28.8293 17.6128 29.5167 17.136 29.8875C16.9443 30.0366 16.7084 30.1177 16.4657 30.1181Z" fill="#F7BA61"/>
<path d="M23.2386 26.2871C22.937 26.287 22.6489 26.1623 22.4422 25.9425C17.683 20.8998 17.683 13.0204 22.4422 7.97765C22.8526 7.53419 23.5448 7.50753 23.9881 7.9179C24.4316 8.32827 24.4582 9.02046 24.0479 9.46379C24.0439 9.46803 24.0401 9.47227 24.036 9.47637C20.0686 13.6769 20.0686 20.2433 24.036 24.4438C24.4499 24.884 24.4286 25.5763 23.9884 25.9901C23.7855 26.181 23.5173 26.2873 23.2386 26.2871Z" fill="#F7BA61"/>
<path d="M47.5337 30.1181C46.9295 30.1173 46.4404 29.6269 46.4411 29.0228C46.4413 28.7799 46.5224 28.5442 46.6716 28.3525C51.9008 21.6576 51.9008 12.2625 46.6716 5.56763C46.3004 5.09094 46.3858 4.40353 46.8625 4.03227C47.3392 3.66101 48.0266 3.74648 48.3979 4.22317C54.2424 11.7087 54.2424 22.2114 48.3979 29.6969C48.1902 29.9632 47.8713 30.1185 47.5337 30.1181Z" fill="#F7BA61"/>
<path d="M40.7611 26.2871C40.1569 26.2874 39.6668 25.7978 39.6666 25.1937C39.6664 24.915 39.7727 24.6468 39.9636 24.4438C43.9309 20.2433 43.9309 13.6768 39.9636 9.47634C39.5462 9.03944 39.5621 8.34697 39.999 7.92963C40.4359 7.51229 41.1284 7.52815 41.5457 7.96505C41.5497 7.96915 41.5536 7.97339 41.5576 7.97763C46.3168 13.0203 46.3168 20.8998 41.5576 25.9425C41.3508 26.1622 41.0627 26.287 40.7611 26.2871Z" fill="#F7BA61"/>
<path d="M40.7611 26.2871C40.1569 26.2874 39.6668 25.7978 39.6666 25.1937C39.6664 24.915 39.7727 24.6468 39.9636 24.4438C43.9309 20.2433 43.9309 13.6768 39.9636 9.47634C39.5462 9.03944 39.5621 8.34697 39.999 7.92963C40.4359 7.51229 41.1284 7.52815 41.5457 7.96505C41.5497 7.96915 41.5536 7.97339 41.5576 7.97763C46.3168 13.0203 46.3168 20.8998 41.5576 25.9425C41.3508 26.1622 41.0627 26.287 40.7611 26.2871Z" fill="#F7BA61"/>
<path d="M23.2386 26.2871C22.937 26.287 22.6489 26.1623 22.4422 25.9425C17.683 20.8998 17.683 13.0204 22.4422 7.97765C22.8526 7.53419 23.5448 7.50753 23.9881 7.9179C24.4316 8.32827 24.4582 9.02046 24.0479 9.46379C24.0439 9.46803 24.0401 9.47227 24.036 9.47637C20.0686 13.6769 20.0686 20.2433 24.036 24.4438C24.4499 24.884 24.4286 25.5763 23.9884 25.9901C23.7855 26.181 23.5173 26.2873 23.2386 26.2871Z" fill="#F7BA61"/>
<path d="M45.1277 64C44.6286 63.9998 44.1931 63.6619 44.0688 63.1785L33.3393 21.3359H30.6613L19.9329 63.1785C19.7818 63.7639 19.1848 64.1161 18.5994 63.965C18.014 63.8139 17.6617 63.2169 17.8128 62.6315L28.7523 19.9674C28.8776 19.4845 29.3135 19.1475 29.8124 19.148H34.1882C34.6877 19.1477 35.1239 19.4858 35.2482 19.9696L46.1877 62.6337C46.3383 63.2188 45.9859 63.8152 45.4008 63.9657C45.4002 63.9658 45.3996 63.966 45.399 63.9661C45.3103 63.9885 45.2192 63.9999 45.1277 64Z" fill="#69B0BB"/>
<path d="M32 22.4298C28.9792 22.4298 26.5303 19.9809 26.5303 16.9601C26.5303 13.9392 28.9792 11.4903 32 11.4903C35.0208 11.4903 37.4698 13.9392 37.4698 16.9601C37.4661 19.9794 35.0193 22.4261 32 22.4298Z" fill="#DC4D41"/>
</g>
<defs>
<clipPath id="clip0">
<rect width="64" height="64" fill="white"/>
</clipPath>
</defs>
</svg>
