<svg width="64" height="64" viewBox="0 0 64 64" fill="none" xmlns="http://www.w3.org/2000/svg">
<path d="M35.2893 28.8002H28.7076C28.4786 29.3102 28.1546 29.8902 27.7716 30.4561C27.6486 30.6401 27.6207 30.8681 27.6937 31.0751C27.7677 31.2822 27.9336 31.4401 28.1446 31.5051C29.3246 31.8621 30.6565 32.0501 31.9985 32.0501C33.3394 32.0501 34.6723 31.8621 35.8523 31.5051C36.0623 31.4411 36.2294 31.282 36.3034 31.0751C36.3764 30.8681 36.3474 30.6392 36.2254 30.4561C35.8423 29.8902 35.5183 29.3102 35.2893 28.8002Z" fill="#0092FF"/>
<path d="M31.9986 24.0624C39.014 24.0624 44.701 21.6816 44.701 18.7448C44.701 15.8079 39.014 13.4271 31.9986 13.4271C24.9832 13.4271 19.2961 15.8079 19.2961 18.7448C19.2961 21.6816 24.9832 24.0624 31.9986 24.0624Z" fill="#093568"/>
<path d="M44.7008 18.7448C44.7008 21.6826 39.0131 24.0624 31.9984 24.0624C24.9836 24.0624 19.2959 21.6815 19.2959 18.7448" fill="#041D35"/>
<path d="M27.3857 17.5449C27.3857 19.4958 25.8067 21.0777 23.8529 21.0777C21.905 21.0777 7.90771 19.4958 7.90771 17.5449C7.90771 15.596 21.905 14.0141 23.8529 14.0141C25.8069 14.014 27.3857 15.5959 27.3857 17.5449Z" fill="#093568"/>
<path d="M23.8528 14.0139C25.8068 14.0139 27.3856 15.5958 27.3856 17.5447Z" fill="#074584"/>
<path d="M27.3855 17.5449C27.3855 19.4958 29.6584 23.6466 27.7074 23.6466C25.7565 23.6466 7.90649 19.4967 7.90649 17.5449" fill="#041D35"/>
<path d="M11.4264 18.3757C11.4264 19.5007 10.5154 20.4107 9.39247 20.4107C8.26747 20.4107 7.36157 19.5007 7.36157 18.3757V16.5558C7.36157 15.4328 8.26747 14.5229 9.39247 14.5229C10.5154 14.5229 11.4264 15.4328 11.4264 16.5558V18.3757V18.3757Z" fill="#041D35"/>
<path d="M11.4264 16.3698C11.4264 17.4928 10.5154 18.4028 9.39247 18.4028C8.26747 18.4028 7.36157 17.4928 7.36157 16.3698V14.5499C7.36157 13.4269 8.26747 12.515 9.39247 12.515C10.5154 12.515 11.4264 13.4269 11.4264 14.5499V16.3698V16.3698Z" fill="#093568"/>
<path d="M7.42358 14.5489C7.63863 15.4398 8.43548 16.1019 9.39253 16.1019C10.3495 16.1019 11.1454 15.4398 11.3625 14.5489C11.1455 13.6599 10.3496 12.996 9.39253 12.996C8.43561 12.996 7.63863 13.661 7.42358 14.5489Z" fill="#041D35"/>
<path d="M9.39155 14.416C14.5784 14.416 18.7831 13.7507 18.7831 12.9301C18.7831 12.1094 14.5784 11.4442 9.39155 11.4442C4.20474 11.4442 0 12.1094 0 12.9301C0 13.7507 4.20474 14.416 9.39155 14.416Z" fill="#00B1FF"/>
<path d="M9.39258 14.416C12.2743 14.416 14.6104 13.7507 14.6104 12.9301C14.6104 12.1094 12.2743 11.4442 9.39258 11.4442C6.51088 11.4442 4.1748 12.1094 4.1748 12.9301C4.1748 13.7507 6.51088 14.416 9.39258 14.416Z" fill="#0092FF"/>
<path d="M18.724 12.93C18.724 13.075 18.609 13.19 18.463 13.19H0.320007C0.177065 13.19 0.0610352 13.075 0.0610352 12.93C0.0610352 12.7851 0.177065 12.668 0.320007 12.668H18.4632C18.6081 12.668 18.724 12.786 18.724 12.93Z" fill="#00CFFF"/>
<path d="M11.4603 11.1261C11.4603 11.7221 12.2594 12.2081 11.6584 12.2081H7.1246C6.52667 12.2081 7.32454 11.7221 7.32454 11.1261C7.32454 10.5241 7.81049 10.0402 8.40854 10.0402H10.3744C10.9734 10.0401 11.4603 10.5241 11.4603 11.1261Z" fill="#041D35"/>
<path d="M36.6113 17.5449C36.6113 19.4958 38.1903 21.0777 40.1431 21.0777C42.092 21.0777 56.0893 19.4958 56.0893 17.5449C56.0893 15.596 42.092 14.0141 40.1431 14.0141C38.1902 14.014 36.6113 15.5959 36.6113 17.5449Z" fill="#093568"/>
<path d="M40.1441 14.0139C38.1911 14.0139 36.6123 15.5958 36.6123 17.5447Z" fill="#074584"/>
<path d="M36.6113 17.5449C36.6113 19.4958 34.3384 23.6466 36.2894 23.6466C38.2403 23.6466 56.0904 19.4968 56.0904 17.5449" fill="#041D35"/>
<path d="M52.5703 18.3757C52.5703 19.5007 53.4813 20.4107 54.6043 20.4107C55.7282 20.4107 56.6362 19.5007 56.6362 18.3757V16.5558C56.6362 15.4328 55.7282 14.5229 54.6043 14.5229C53.4813 14.5229 52.5703 15.4328 52.5703 16.5558V18.3757Z" fill="#041D35"/>
<path d="M52.5703 16.3698C52.5703 17.4928 53.4813 18.4028 54.6043 18.4028C55.7282 18.4028 56.6362 17.4928 56.6362 16.3698V14.5499C56.6362 13.4269 55.7282 12.515 54.6043 12.515C53.4813 12.515 52.5703 13.4269 52.5703 14.5499V16.3698Z" fill="#093568"/>
<path d="M56.5733 14.5489C56.3583 15.4398 55.5604 16.1019 54.6044 16.1019C53.6475 16.1019 52.8505 15.4398 52.6335 14.5489C52.8505 13.6599 53.6475 12.996 54.6044 12.996C55.5603 12.997 56.3583 13.661 56.5733 14.5489Z" fill="#041D35"/>
<path d="M54.6074 14.416C59.7948 14.416 64 13.7507 64 12.9301C64 12.1094 59.7948 11.4442 54.6074 11.4442C49.42 11.4442 45.2148 12.1094 45.2148 12.9301C45.2148 13.7507 49.42 14.416 54.6074 14.416Z" fill="#00B1FF"/>
<path d="M54.6074 14.416C57.4891 14.416 59.8252 13.7507 59.8252 12.9301C59.8252 12.1094 57.4891 11.4442 54.6074 11.4442C51.7257 11.4442 49.3896 12.1094 49.3896 12.9301C49.3896 13.7507 51.7257 14.416 54.6074 14.416Z" fill="#0092FF"/>
<path d="M45.2729 12.93C45.2729 13.075 45.388 13.19 45.534 13.19H63.6771C63.82 13.19 63.9361 13.075 63.9361 12.93C63.9361 12.7851 63.82 12.668 63.6771 12.668H45.534C45.3889 12.668 45.2729 12.786 45.2729 12.93Z" fill="#00CFFF"/>
<path d="M52.5365 11.1261C52.5365 11.7221 51.7375 12.2081 52.3384 12.2081H56.8722C57.4701 12.2081 56.6723 11.7221 56.6723 11.1261C56.6723 10.5241 56.1863 10.0402 55.5883 10.0402H53.6224C53.0244 10.0401 52.5365 10.5241 52.5365 11.1261Z" fill="#041D35"/>
<path d="M38.0082 19.2596H36.0704C35.7764 19.2596 35.4964 19.3907 35.3064 19.6146C35.0354 19.9346 33.7955 20.4095 31.9975 20.4095C30.1986 20.4095 28.9617 19.9345 28.6907 19.6146C28.4997 19.3896 28.2207 19.2596 27.9257 19.2596H25.9887C25.4358 19.2596 24.9888 19.7066 24.9888 20.2596V22.3085C24.9888 22.5626 25.0868 22.8084 25.2598 22.9946C25.6418 23.3985 26.1708 23.5666 26.6817 23.7286C27.6597 24.0376 27.7657 24.1645 27.7657 24.5276C27.7657 25.3416 26.9938 27.0604 25.8849 28.7054C25.7089 28.9694 25.6669 29.3014 25.7739 29.6004C25.881 29.8993 26.1229 30.1294 26.4259 30.2214C28.1319 30.7373 30.0588 31.0104 31.9976 31.0104C33.9365 31.0104 35.8645 30.7374 37.5704 30.2214C37.8744 30.1294 38.1143 29.8995 38.2224 29.6004C38.3284 29.3014 38.2864 28.9694 38.1104 28.7054C37.0034 27.0604 36.2304 25.3426 36.2304 24.5276C36.2304 24.1646 36.3364 24.0376 37.3124 23.7286C37.8244 23.5666 38.3534 23.3986 38.7354 22.9946C38.9094 22.8086 39.0064 22.5626 39.0064 22.3085V20.2596C39.0082 19.7076 38.5602 19.2596 38.0082 19.2596Z" fill="#081E34"/>
<path d="M34.0399 15.1549C34.0399 15.2589 33.9559 15.3429 33.8519 15.3429H30.145C30.0411 15.3429 29.957 15.2589 29.957 15.1549C29.957 15.051 30.0411 14.9669 30.145 14.9669H33.8519C33.956 14.9669 34.0399 15.0508 34.0399 15.1549Z" fill="#0092FF"/>
<path d="M34.0394 16.2798C34.0394 16.3838 33.9554 16.4678 33.8514 16.4678H30.1446C30.0406 16.4678 29.9565 16.3838 29.9565 16.2798C29.9565 16.1758 30.0406 16.0918 30.1446 16.0918H33.8514C33.9555 16.0918 34.0394 16.1758 34.0394 16.2798Z" fill="#0092FF"/>
<path d="M34.0394 17.4048C34.0394 17.5088 33.9554 17.5928 33.8514 17.5928H30.1446C30.0406 17.5928 29.9565 17.5088 29.9565 17.4048C29.9565 17.3008 30.0406 17.2168 30.1446 17.2168H33.8514C33.9555 17.2168 34.0394 17.3008 34.0394 17.4048Z" fill="#0092FF"/>
<path d="M10.9375 43.0906C11.5325 42.4946 12.5005 42.4946 13.0974 43.0906C23.5178 53.5141 40.4761 53.5141 50.8996 43.0906C51.4956 42.4946 52.4615 42.4946 53.0574 43.0906C53.6553 43.6885 53.6553 44.6546 53.0574 45.2504C41.4449 56.8629 22.5488 56.8629 10.9374 45.2504C10.3415 44.6556 10.3415 43.6886 10.9375 43.0906Z" fill="#8DF4FF"/>
<path d="M16.6062 38.0027C17.0422 37.5668 17.7512 37.5668 18.1862 38.0027C25.8009 45.6174 38.1952 45.6174 45.8099 38.0027C46.2458 37.5668 46.9528 37.5668 47.3879 38.0027C47.8229 38.4387 47.8238 39.1456 47.3879 39.5807C38.9022 48.0663 25.0939 48.0682 16.6074 39.5807C16.1722 39.1458 16.1713 38.4388 16.6062 38.0027Z" fill="#39E3FF"/>
<path d="M21.5581 33.562C21.8531 33.2651 22.3321 33.2651 22.628 33.562C27.7937 38.7278 36.2013 38.7278 41.3672 33.56C41.6632 33.265 42.1422 33.265 42.4381 33.562C42.7341 33.8571 42.7341 34.335 42.4381 34.6319C36.6814 40.3877 27.3148 40.3896 21.5571 34.6319C21.2621 34.335 21.2621 33.8571 21.5581 33.562Z" fill="#00CFFF"/>
</svg>
