<svg width="64" height="64" viewBox="0 0 64 64" fill="none" xmlns="http://www.w3.org/2000/svg">
<path d="M31.9998 42.246C36.1235 42.246 39.4665 38.9031 39.4665 34.7794C39.4665 30.6557 36.1235 27.3127 31.9998 27.3127C27.8761 27.3127 24.5332 30.6557 24.5332 34.7794C24.5332 38.9031 27.8761 42.246 31.9998 42.246Z" fill="#366DB6"/>
<path d="M49.6629 61.2199C49.3258 61.2199 48.9951 61.061 48.7871 60.7634C48.45 60.2801 48.5685 59.6156 49.0516 59.2786C57.0761 53.6765 61.8665 44.517 61.8665 34.7794C61.8665 18.3111 48.4681 4.91273 31.9999 4.91273C15.5316 4.91273 2.13337 18.3111 2.13337 34.7794C2.13337 44.517 6.92375 53.6765 14.9494 59.2786C15.4326 59.6157 15.5499 60.2802 15.2139 60.7634C14.8767 61.2476 14.2122 61.366 13.728 61.0279C5.13175 55.0269 0 45.2146 0 34.7794C0 17.1346 14.3552 2.77936 32 2.77936C49.6448 2.77936 64 17.1346 64 34.7794C64 45.2146 58.8682 55.0269 50.272 61.0279C50.0864 61.157 49.8731 61.2199 49.6629 61.2199Z" fill="#C6E2F7"/>
<path d="M44.2775 55.8354C43.9202 55.8354 43.5703 55.6561 43.3688 55.3287C43.0594 54.8273 43.2152 54.1703 43.7175 53.861C50.4067 49.7362 54.4002 42.6033 54.4002 34.7793C54.4002 22.4273 44.351 12.3793 32.0002 12.3793C19.6493 12.3793 9.60017 22.4273 9.60017 34.7793C9.60017 42.6033 13.5938 49.7361 20.2828 53.861C20.7842 54.1703 20.9399 54.8273 20.6315 55.3287C20.3222 55.829 19.6652 55.9868 19.1638 55.6765C11.839 51.1612 7.4668 43.35 7.4668 34.7793C7.4668 21.2518 18.4727 10.246 32.0002 10.246C45.5277 10.246 56.5335 21.2518 56.5335 34.7793C56.5335 43.35 52.1613 51.1612 44.8364 55.6765C44.6615 55.7841 44.4684 55.8354 44.2775 55.8354Z" fill="#C6E2F7"/>
<path d="M38.7669 50.325C38.3657 50.325 37.9817 50.0989 37.8005 49.7116C37.5499 49.1783 37.7791 48.5436 38.3125 48.293C43.5499 45.8344 46.9332 40.5309 46.9332 34.7794C46.9332 26.5448 40.2346 19.846 31.9999 19.846C23.7651 19.846 17.0665 26.5446 17.0665 34.7794C17.0665 40.5309 20.45 45.8343 25.6872 48.2919C26.2206 48.5425 26.4499 49.1773 26.1992 49.7105C25.9496 50.2449 25.3139 50.4753 24.7806 50.2225C18.7987 47.4161 14.9331 41.3543 14.9331 34.7793C14.9331 25.3691 22.5886 17.7126 31.9997 17.7126C41.4109 17.7126 49.0664 25.3691 49.0664 34.7793C49.0664 41.3541 45.2007 47.416 39.2189 50.2235C39.0731 50.2919 38.9184 50.325 38.7669 50.325Z" fill="#C6E2F7"/>
</svg>
