<svg width="94" height="40" viewBox="0 0 94 40" fill="none" xmlns="http://www.w3.org/2000/svg">
<path d="M7.00781 20.3945C5.07812 19.8398 3.67188 19.1602 2.78906 18.3555C1.91406 17.543 1.47656 16.543 1.47656 15.3555C1.47656 14.0117 2.01172 12.9023 3.08203 12.0273C4.16016 11.1445 5.55859 10.7031 7.27734 10.7031C8.44922 10.7031 9.49219 10.9297 10.4062 11.3828C11.3281 11.8359 12.0391 12.4609 12.5391 13.2578C13.0469 14.0547 13.3008 14.9258 13.3008 15.8711H11.0391C11.0391 14.8398 10.7109 14.0312 10.0547 13.4453C9.39844 12.8516 8.47266 12.5547 7.27734 12.5547C6.16797 12.5547 5.30078 12.8008 4.67578 13.293C4.05859 13.7773 3.75 14.4531 3.75 15.3203C3.75 16.0156 4.04297 16.6055 4.62891 17.0898C5.22266 17.5664 6.22656 18.0039 7.64062 18.4023C9.0625 18.8008 10.1719 19.2422 10.9688 19.7266C11.7734 20.2031 12.3672 20.7617 12.75 21.4023C13.1406 22.043 13.3359 22.7969 13.3359 23.6641C13.3359 25.0469 12.7969 26.1562 11.7188 26.9922C10.6406 27.8203 9.19922 28.2344 7.39453 28.2344C6.22266 28.2344 5.12891 28.0117 4.11328 27.5664C3.09766 27.1133 2.3125 26.4961 1.75781 25.7148C1.21094 24.9336 0.9375 24.0469 0.9375 23.0547H3.19922C3.19922 24.0859 3.57812 24.9023 4.33594 25.5039C5.10156 26.0977 6.12109 26.3945 7.39453 26.3945C8.58203 26.3945 9.49219 26.1523 10.125 25.668C10.7578 25.1836 11.0742 24.5234 11.0742 23.6875C11.0742 22.8516 10.7812 22.207 10.1953 21.7539C9.60938 21.293 8.54688 20.8398 7.00781 20.3945ZM17.9297 15.3203L17.9883 16.7266C18.918 15.6328 20.1719 15.0859 21.75 15.0859C23.5234 15.0859 24.7305 15.7656 25.3711 17.125C25.793 16.5156 26.3398 16.0234 27.0117 15.6484C27.6914 15.2734 28.4922 15.0859 29.4141 15.0859C32.1953 15.0859 33.6094 16.5586 33.6562 19.5039V28H31.4883V19.6328C31.4883 18.7266 31.2812 18.0508 30.8672 17.6055C30.4531 17.1523 29.7578 16.9258 28.7812 16.9258C27.9766 16.9258 27.3086 17.168 26.7773 17.6523C26.2461 18.1289 25.9375 18.7734 25.8516 19.5859V28H23.6719V19.6914C23.6719 17.8477 22.7695 16.9258 20.9648 16.9258C19.543 16.9258 18.5703 17.5312 18.0469 18.7422V28H15.8789V15.3203H17.9297ZM44.7656 28C44.6406 27.75 44.5391 27.3047 44.4609 26.6641C43.4531 27.7109 42.25 28.2344 40.8516 28.2344C39.6016 28.2344 38.5742 27.8828 37.7695 27.1797C36.9727 26.4688 36.5742 25.5703 36.5742 24.4844C36.5742 23.1641 37.0742 22.1406 38.0742 21.4141C39.082 20.6797 40.4961 20.3125 42.3164 20.3125H44.4258V19.3164C44.4258 18.5586 44.1992 17.957 43.7461 17.5117C43.293 17.0586 42.625 16.832 41.7422 16.832C40.9688 16.832 40.3203 17.0273 39.7969 17.418C39.2734 17.8086 39.0117 18.2812 39.0117 18.8359H36.832C36.832 18.2031 37.0547 17.5938 37.5 17.0078C37.9531 16.4141 38.5625 15.9453 39.3281 15.6016C40.1016 15.2578 40.9492 15.0859 41.8711 15.0859C43.332 15.0859 44.4766 15.4531 45.3047 16.1875C46.1328 16.9141 46.5625 17.918 46.5938 19.1992V25.0352C46.5938 26.1992 46.7422 27.125 47.0391 27.8125V28H44.7656ZM41.168 26.3477C41.8477 26.3477 42.4922 26.1719 43.1016 25.8203C43.7109 25.4688 44.1523 25.0117 44.4258 24.4492V21.8477H42.7266C40.0703 21.8477 38.7422 22.625 38.7422 24.1797C38.7422 24.8594 38.9688 25.3906 39.4219 25.7734C39.875 26.1562 40.457 26.3477 41.168 26.3477ZM56.1211 17.2656C55.793 17.2109 55.4375 17.1836 55.0547 17.1836C53.6328 17.1836 52.668 17.7891 52.1602 19V28H49.9922V15.3203H52.1016L52.1367 16.7852C52.8477 15.6523 53.8555 15.0859 55.1602 15.0859C55.582 15.0859 55.9023 15.1406 56.1211 15.25V17.2656ZM61.6523 12.25V15.3203H64.0195V16.9961H61.6523V24.8594C61.6523 25.3672 61.7578 25.75 61.9688 26.0078C62.1797 26.2578 62.5391 26.3828 63.0469 26.3828C63.2969 26.3828 63.6406 26.3359 64.0781 26.2422V28C63.5078 28.1562 62.9531 28.2344 62.4141 28.2344C61.4453 28.2344 60.7148 27.9414 60.2227 27.3555C59.7305 26.7695 59.4844 25.9375 59.4844 24.8594V16.9961H57.1758V15.3203H59.4844V12.25H61.6523Z" fill="#4D4D4D"/>
<path d="M75.293 23.5234C75.293 22.8594 75.0586 22.3516 74.5898 22C74.1211 21.6406 73.2773 21.2656 72.0586 20.875C70.8398 20.4766 69.875 20.0859 69.1641 19.7031C67.2266 18.6562 66.2578 17.2461 66.2578 15.4727C66.2578 14.5508 66.5156 13.7305 67.0312 13.0117C67.5547 12.2852 68.3008 11.7188 69.2695 11.3125C70.2461 10.9062 71.3398 10.7031 72.5508 10.7031C73.7695 10.7031 74.8555 10.9258 75.8086 11.3711C76.7617 11.8086 77.5 12.4297 78.0234 13.2344C78.5547 14.0391 78.8203 14.9531 78.8203 15.9766H75.3047C75.3047 15.1953 75.0586 14.5898 74.5664 14.1602C74.0742 13.7227 73.3828 13.5039 72.4922 13.5039C71.6328 13.5039 70.9648 13.6875 70.4883 14.0547C70.0117 14.4141 69.7734 14.8906 69.7734 15.4844C69.7734 16.0391 70.0508 16.5039 70.6055 16.8789C71.168 17.2539 71.9922 17.6055 73.0781 17.9336C75.0781 18.5352 76.5352 19.2812 77.4492 20.1719C78.3633 21.0625 78.8203 22.1719 78.8203 23.5C78.8203 24.9766 78.2617 26.1367 77.1445 26.9805C76.0273 27.8164 74.5234 28.2344 72.6328 28.2344C71.3203 28.2344 70.125 27.9961 69.0469 27.5195C67.9688 27.0352 67.1445 26.375 66.5742 25.5391C66.0117 24.7031 65.7305 23.7344 65.7305 22.6328H69.2578C69.2578 24.5156 70.3828 25.457 72.6328 25.457C73.4688 25.457 74.1211 25.2891 74.5898 24.9531C75.0586 24.6094 75.293 24.1328 75.293 23.5234ZM91.4766 20.6055H84.7266V25.1758H92.6484V28H81.2109V10.9375H92.625V13.7852H84.7266V17.8516H91.4766V20.6055Z" fill="#0099E5"/>
</svg>
