<svg width="24" height="24" viewBox="0 0 24 24" fill="none" xmlns="http://www.w3.org/2000/svg">
<path d="M11.8251 18.2161C8.2232 18.2161 6.57687 16.3534 6.57687 14.9882C6.57687 14.6631 6.70887 14.3515 6.94109 14.1266C7.17331 13.9029 7.48743 13.7856 7.80887 13.8039C9.35009 13.8039 8.94676 16.1506 11.8251 16.1506C13.2954 16.1506 14.1595 15.251 14.1595 14.4089C14.1595 13.9017 13.8735 13.3223 12.9031 13.0901L9.68987 12.2676C7.10976 11.6015 6.65998 10.1446 6.65998 8.79401C6.65998 5.99146 9.18754 4.97579 11.5929 4.97579C13.81 4.97579 16.4451 6.21757 16.4451 7.89812C16.4451 8.62168 15.8486 9.01034 15.1556 9.01034C13.8381 9.01034 14.0593 7.13301 11.412 7.13301C10.0956 7.13301 9.40142 7.76001 9.40142 8.63635C9.40142 9.51268 10.4269 9.80968 11.3252 10.0089L13.6975 10.5528C16.296 11.1468 16.9865 12.6929 16.9865 14.1742C16.9865 16.4537 15.2473 18.2137 11.8214 18.2137L11.8251 18.2161ZM21.7691 13.3957C21.8742 12.7968 21.9255 12.1906 21.9255 11.5843C21.9377 8.5349 20.6165 5.63701 18.3175 3.67168C16.021 1.70513 12.9825 0.875241 10.0211 1.40324C9.11298 0.871575 8.08143 0.592908 7.03154 0.595353C4.87676 0.607575 2.89187 1.78091 1.81265 3.67413C0.735876 5.56735 0.728543 7.89935 1.79432 9.79868C1.1991 13.1158 2.24165 16.5172 4.58343 18.9079C6.92643 21.2973 10.2729 22.3729 13.546 21.7862C14.4541 22.3179 15.4844 22.5966 16.5319 22.5953C18.6879 22.5819 20.6703 21.4098 21.7495 19.5178C22.8275 17.6258 22.8361 15.295 21.7691 13.3957Z" fill="#0099E5"/>
</svg>
